<svg version="1.1" xmlns="http://www.w3.org/2000/svg" xmlns:xlink="http://www.w3.org/1999/xlink" viewBox="0 0 299.8 71.2" xml:space="preserve">
  <path d="M124.2,54.5H99.4V42.6h25.3c3.2,0.3,5.6,2.9,5.6,5.9C130.4,51.7,127.7,54.5,124.2,54.5L124.2,54.5z M99.5,15.5h26.3 c2.9,0.4,5.1,2.9,5.1,5.7s-2.3,5.6-5.3,5.9H99.8C99.8,27.2,99.5,15.5,99.5,15.5z M136.3,34.4c9.5-3,11.2-10.6,11.2-16.7 c0-9.5-7-17.7-27.6-17.7H81.2v70.9h38.5c20.8,0,28.5-10.3,28.5-20.4C148.2,38.3,136.3,34.4,136.3,34.4L136.3,34.4L136.3,34.4z"/>
  <path d="M234.6,0.1h65.2v15.4h-47.1V27h42.4v15.5h-42.4v12.4h47.1v16.3h-65.2L234.6,0.1L234.6,0.1z"/>
  <path d="M206.6,22.2c-0.3,2.3-2.7,4.8-5.9,4.8h-25.5V15.7h25.5c3,0,5.4,2.1,5.9,5L206.6,22.2L206.6,22.2z M196.6,0.1h-39.4v71.1 h18.1V42.6h19.9c5.7,0.1,10.1,4.5,10.1,10.1v18.6h17.8V48.3c0-10.6-10.7-13.7-10.7-13.7s11-3.2,11-15.7 C223.3,3.3,209.6,0.1,196.6,0.1L196.6,0.1z"/>
  <path d="M69.4,54c-0.3,0-24.8,0.4-33.2-0.3C22.7,52.5,17.8,42.8,17.8,35c0-9.8,7-17.1,17.8-18.4c5.1-0.6,33.4-0.3,33.7-0.3h0.6V0.1 H37.3C33.7,0.3,27.8,0.7,21.7,3C16.2,5.6,11,9.5,7.2,14.3C2.6,20.5,0,27.8,0,35.5c0,2.4,0.1,4.8,0.6,7.1C2.9,53.3,10.3,62.2,20.8,67 c3.6,1.5,9,3.3,20.2,3.9l6,0.1H70V54L69.4,54L69.4,54z"/>
</svg>
